<?xml version="1.0" encoding="UTF-8"?>
<svg id="Layer_2" data-name="Layer 2" xmlns="http://www.w3.org/2000/svg" viewBox="0 0 810.8 177">
  <defs>
    <style>
      .cls-1, .cls-2 {
        fill: #2c3e50;
      }

      .cls-1, .cls-2, .cls-3 {
        stroke-width: 0px;
      }

      .cls-2 {
        isolation: isolate;
        opacity: .5;
      }

      .cls-3 {
        fill: #1d2834;
      }
    </style>
  </defs>
  <g id="Layer_1-2" data-name="Layer 1">
    <path class="cls-1" d="m120.14,4.91c-13.97-6.55-29.63-6.55-43.61,0L10.73,35.76C.15,40.72-2.61,54.71,2.46,64.38v48.71c0,4.07,3.3,7.38,7.38,7.38s7.38-3.3,7.38-7.38v-37.64l59.32,27.81c13.97,6.55,29.63,6.55,43.61,0l65.8-30.85c14.31-6.71,14.31-29.94,0-36.65L120.14,4.91Z"/>
    <path class="cls-2" d="m29.5,81.21l47.03,22.05c13.97,6.55,29.63,6.55,43.61,0l47.03-22.05v52.78c0,9.91-4.95,19.19-13.62,24-14.44,8-37.55,19.02-55.21,19.02s-40.77-11.03-55.21-19.02c-8.67-4.8-13.62-14.08-13.62-24v-52.78Z"/>
    <path class="cls-3" d="m309.28,124V54.18h48.68v13.7h-31.81v14.32h29.32v13.74h-29.32v14.35h31.81v13.71h-48.68Zm79.33.75c-3.86,0-7.38-1-10.53-3s-5.68-5-7.57-9c-1.89-4-2.83-8.97-2.83-14.9s.98-11.23,2.93-15.2c1.96-3.98,4.51-6.92,7.67-8.83,3.18-1.91,6.6-2.86,10.26-2.86,2.75,0,5.1.48,7.06,1.43,1.95.93,3.57,2.14,4.84,3.61,1.27,1.48,2.24,3.01,2.9,4.6h.34v-26.42h16.67v69.82h-16.5v-8.49h-.51c-.7,1.61-1.7,3.12-3,4.53-1.3,1.41-2.92,2.55-4.88,3.41-1.93.86-4.22,1.29-6.85,1.29Zm5.8-12.99c2.02,0,3.75-.57,5.18-1.7,1.43-1.16,2.53-2.78,3.31-4.88.77-2.09,1.16-4.55,1.16-7.36s-.39-5.33-1.16-7.4c-.75-2.07-1.85-3.66-3.31-4.77-1.43-1.11-3.16-1.67-5.18-1.67s-3.82.57-5.25,1.7c-1.43,1.14-2.52,2.74-3.27,4.81-.73,2.07-1.09,4.51-1.09,7.33s.38,5.27,1.12,7.36c.75,2.09,1.83,3.72,3.24,4.88,1.43,1.14,3.18,1.7,5.25,1.7Zm71.23-10.36v-29.76h16.64v52.36h-15.89v-9.75h-.55c-1.16,3.21-3.14,5.75-5.93,7.64-2.77,1.86-6.12,2.8-10.06,2.8-3.57,0-6.7-.82-9.41-2.46-2.7-1.64-4.81-3.92-6.31-6.85-1.5-2.96-2.26-6.41-2.28-10.36v-33.37h16.67v30.1c.02,2.84.77,5.08,2.25,6.72,1.48,1.64,3.49,2.45,6.03,2.45,1.66,0,3.15-.36,4.47-1.09,1.34-.75,2.4-1.83,3.17-3.24.8-1.43,1.19-3.16,1.19-5.18Zm69.56-29.76c-.41-3.45-2.07-6.14-4.98-8.05s-6.48-2.86-10.71-2.86c-3.09,0-5.79.5-8.11,1.5-2.29,1-4.09,2.38-5.39,4.13-1.27,1.75-1.91,3.74-1.91,5.97,0,1.86.44,3.47,1.33,4.81.91,1.32,2.07,2.42,3.48,3.31,1.41.86,2.89,1.58,4.43,2.15,1.54.55,2.97.99,4.26,1.33l7.09,1.91c1.82.48,3.84,1.14,6.07,1.98,2.25.84,4.4,1.99,6.44,3.44,2.07,1.43,3.77,3.27,5.11,5.52s2.01,5.01,2.01,8.28c0,3.77-.99,7.18-2.97,10.23-1.95,3.04-4.82,5.47-8.59,7.26-3.75,1.8-8.31,2.69-13.67,2.69-5,0-9.33-.81-12.99-2.42-3.64-1.61-6.5-3.86-8.59-6.75-2.07-2.89-3.24-6.24-3.51-10.06h8.73c.23,2.64,1.11,4.82,2.66,6.54,1.57,1.71,3.55,2.98,5.93,3.82,2.41.82,5,1.23,7.77,1.23,3.23,0,6.12-.52,8.69-1.57,2.57-1.07,4.6-2.55,6.1-4.43,1.5-1.91,2.25-4.14,2.25-6.68,0-2.32-.65-4.2-1.94-5.66-1.3-1.45-3-2.64-5.11-3.55-2.11-.91-4.4-1.7-6.85-2.39l-8.59-2.45c-5.45-1.57-9.77-3.81-12.95-6.72-3.18-2.91-4.77-6.72-4.77-11.42,0-3.91,1.06-7.32,3.17-10.23,2.14-2.93,5-5.2,8.59-6.82,3.61-1.64,7.65-2.45,12.1-2.45s8.5.81,12,2.42c3.5,1.59,6.27,3.77,8.32,6.55,2.07,2.77,3.16,5.92,3.27,9.44h-8.18Zm22.91,72v-72h7.77v8.32h.95c.59-.91,1.41-2.07,2.46-3.48,1.07-1.43,2.59-2.7,4.57-3.82,2-1.14,4.7-1.7,8.11-1.7,4.41,0,8.29,1.1,11.66,3.31,3.36,2.2,5.99,5.33,7.88,9.38,1.89,4.05,2.83,8.82,2.83,14.32s-.94,10.35-2.83,14.42c-1.89,4.04-4.5,7.18-7.84,9.41-3.34,2.21-7.19,3.31-11.56,3.31-3.36,0-6.06-.56-8.08-1.67-2.02-1.14-3.58-2.42-4.67-3.85-1.09-1.45-1.93-2.66-2.52-3.61h-.68v27.68h-8.05Zm7.91-45.82c0,3.95.58,7.44,1.74,10.47,1.16,3,2.85,5.35,5.08,7.06,2.23,1.68,4.96,2.52,8.18,2.52s6.17-.89,8.42-2.66c2.27-1.8,3.98-4.21,5.11-7.23,1.16-3.04,1.74-6.43,1.74-10.16s-.57-7-1.71-9.95c-1.11-2.98-2.81-5.33-5.08-7.06-2.25-1.75-5.08-2.62-8.49-2.62s-6.02.83-8.25,2.49c-2.23,1.64-3.91,3.93-5.04,6.89-1.14,2.93-1.71,6.35-1.71,10.26Zm59.6-5.32v31.5h-8.04V54.18h8.04v25.64h.68c1.23-2.7,3.07-4.85,5.52-6.44,2.48-1.61,5.77-2.42,9.89-2.42,3.57,0,6.69.72,9.38,2.15,2.68,1.41,4.76,3.58,6.24,6.51,1.5,2.91,2.25,6.61,2.25,11.11v33.27h-8.05v-32.73c0-4.16-1.08-7.38-3.24-9.65-2.14-2.3-5.1-3.44-8.9-3.44-2.64,0-5,.56-7.09,1.67-2.07,1.11-3.7,2.74-4.91,4.88-1.18,2.14-1.77,4.73-1.77,7.77Zm71.59,32.59c-5.04,0-9.4-1.11-13.06-3.34-3.64-2.25-6.44-5.39-8.42-9.41-1.96-4.05-2.93-8.75-2.93-14.11s.98-10.09,2.93-14.18c1.98-4.11,4.73-7.32,8.25-9.61,3.54-2.32,7.68-3.48,12.41-3.48,2.73,0,5.42.45,8.08,1.36,2.66.91,5.08,2.39,7.26,4.43,2.18,2.02,3.92,4.7,5.22,8.05,1.29,3.34,1.94,7.45,1.94,12.34v3.41h-40.36v-6.95h32.18c0-2.95-.59-5.59-1.77-7.91-1.16-2.32-2.82-4.15-4.98-5.49-2.14-1.34-4.66-2.01-7.57-2.01-3.21,0-5.98.8-8.32,2.39-2.32,1.57-4.1,3.61-5.35,6.14-1.25,2.52-1.88,5.23-1.88,8.11v4.64c0,3.95.68,7.31,2.04,10.06,1.39,2.73,3.31,4.81,5.76,6.24,2.46,1.41,5.31,2.11,8.56,2.11,2.11,0,4.02-.3,5.73-.89,1.73-.61,3.22-1.52,4.47-2.73,1.25-1.23,2.22-2.75,2.9-4.57l7.77,2.18c-.82,2.64-2.19,4.95-4.12,6.95-1.93,1.98-4.32,3.52-7.16,4.64-2.84,1.09-6.03,1.64-9.58,1.64Zm34.88-1.09v-52.36h7.77v7.91h.55c.95-2.59,2.68-4.69,5.18-6.31,2.5-1.61,5.32-2.42,8.45-2.42.59,0,1.33.01,2.22.03.89.02,1.56.06,2.01.1v8.18c-.27-.07-.9-.17-1.88-.31-.95-.16-1.97-.24-3.03-.24-2.55,0-4.82.53-6.82,1.6-1.98,1.05-3.55,2.5-4.7,4.36-1.14,1.84-1.7,3.94-1.7,6.31v33.14h-8.05Zm57.04,1.09c-5.04,0-9.4-1.11-13.06-3.34-3.64-2.25-6.44-5.39-8.42-9.41-1.96-4.05-2.93-8.75-2.93-14.11s.98-10.09,2.93-14.18c1.98-4.11,4.73-7.32,8.25-9.61,3.54-2.32,7.68-3.48,12.41-3.48,2.73,0,5.42.45,8.08,1.36,2.66.91,5.08,2.39,7.26,4.43,2.18,2.02,3.92,4.7,5.22,8.05,1.29,3.34,1.94,7.45,1.94,12.34v3.41h-40.36v-6.95h32.18c0-2.95-.59-5.59-1.77-7.91-1.16-2.32-2.82-4.15-4.98-5.49-2.14-1.34-4.66-2.01-7.57-2.01-3.21,0-5.98.8-8.32,2.39-2.32,1.57-4.1,3.61-5.35,6.14-1.25,2.52-1.88,5.23-1.88,8.11v4.64c0,3.95.68,7.31,2.04,10.06,1.39,2.73,3.31,4.81,5.76,6.24,2.46,1.41,5.31,2.11,8.56,2.11,2.11,0,4.02-.3,5.73-.89,1.73-.61,3.22-1.52,4.47-2.73,1.25-1.23,2.22-2.75,2.9-4.57l7.77,2.18c-.82,2.64-2.19,4.95-4.12,6.95-1.93,1.98-4.32,3.52-7.16,4.64-2.84,1.09-6.03,1.64-9.58,1.64Z"/>
  </g>
</svg>