<svg width="349" height="315" viewBox="0 0 349 315" fill="none" xmlns="http://www.w3.org/2000/svg">
<path d="M213.19 9.61732C188.393 -2.00786 160.604 -2.00786 135.808 9.61732L19.0484 64.3569C0.272207 73.1597 -4.62304 97.9818 4.36248 115.138V201.573C4.36248 208.801 10.222 214.661 17.45 214.661C24.6779 214.661 30.5374 208.801 30.5374 201.573V134.775L135.81 184.128C160.606 195.754 188.395 195.754 213.192 184.128L329.951 129.39C355.35 117.483 355.35 76.2647 329.951 64.3577L213.19 9.61732Z" fill="#2C3E50"/>
<path opacity="0.5" d="M52.3501 145.001L135.81 184.127C160.606 195.753 188.395 195.753 213.192 184.127L296.65 145.001V238.657C296.65 256.248 287.864 272.716 272.476 281.238C246.853 295.429 205.84 314.993 174.5 314.993C143.16 314.993 102.147 295.429 76.5241 281.238C61.1362 272.716 52.3501 256.248 52.3501 238.657V145.001Z" fill="#2C3E50"/>
</svg>
