<?xml version="1.0" encoding="utf-8"?>
<!-- Generator: Adobe Illustrator 27.9.0, SVG Export Plug-In . SVG Version: 6.00 Build 0)  -->
<svg version="1.1" id="Layer_2_00000112603635750074215080000012873031319336065463_"
	 xmlns="http://www.w3.org/2000/svg" xmlns:xlink="http://www.w3.org/1999/xlink" x="0px" y="0px" viewBox="0 0 349 314.1"
	 style="enable-background:new 0 0 349 314.1;" xml:space="preserve">
<style type="text/css">
	.st0{fill:#412307;}
	.st1{opacity:0.5;fill:#412307;enable-background:new    ;}
</style>
<g id="Layer_1-2">
	<g>
		<path class="st0" d="M213.2,8.7c-24.8-11.6-52.6-11.6-77.4,0L19,63.5C0.3,72.3-4.6,97.1,4.4,114.2v86.4c0,7.2,5.9,13.1,13.1,13.1
			s13.1-5.9,13.1-13.1v-66.8l105.3,49.4c24.8,11.6,52.6,11.6,77.4,0L330,128.5c25.4-11.9,25.4-53.1,0-65L213.2,8.7z"/>
		<path class="st1" d="M52.3,144.1l83.5,39.1c24.8,11.6,52.6,11.6,77.4,0l83.5-39.1v93.7c0,17.6-8.8,34.1-24.2,42.6
			c-25.6,14.2-66.6,33.8-98,33.8s-72.3-19.6-98-33.8c-15.4-8.5-24.2-25-24.2-42.6L52.3,144.1L52.3,144.1z"/>
	</g>
</g>
</svg>
