<?xml version="1.0" encoding="UTF-8"?>
<svg id="Layer_2" data-name="Layer 2" xmlns="http://www.w3.org/2000/svg" viewBox="0 0 349 314.09">
  <defs>
    <style>
      .cls-1, .cls-2 {
        fill: #2c3e50;
        stroke-width: 0px;
      }

      .cls-2 {
        isolation: isolate;
        opacity: .5;
      }
    </style>
  </defs>
  <g id="Layer_1-2" data-name="Layer 1">
    <g>
      <path class="cls-1" d="m213.19,8.72c-24.8-11.63-52.59-11.63-77.38,0L19.05,63.46C.27,72.26-4.62,97.08,4.36,114.24v86.43c0,7.23,5.86,13.09,13.09,13.09s13.09-5.86,13.09-13.09v-66.8l105.27,49.35c24.8,11.63,52.59,11.63,77.38,0l116.76-54.74c25.4-11.91,25.4-53.13,0-65.03L213.19,8.72Z"/>
      <path class="cls-2" d="m52.35,144.1l83.46,39.13c24.8,11.63,52.59,11.63,77.38,0l83.46-39.13v93.66c0,17.59-8.79,34.06-24.17,42.58-25.62,14.19-66.64,33.76-97.98,33.76s-72.35-19.56-97.98-33.76c-15.39-8.52-24.17-24.99-24.17-42.58v-93.66Z"/>
    </g>
  </g>
</svg>